<svg id="notifications_black_24dp" xmlns="http://www.w3.org/2000/svg" width="40" height="40" viewBox="0 0 40 40">
  <path id="Tracé_20" data-name="Tracé 20" d="M0,0H40V40H0Z" fill="none"/>
  <path id="Tracé_21" data-name="Tracé 21" d="M20,38a3.908,3.908,0,0,0,4.109-3.641H15.892A3.9,3.9,0,0,0,20,38ZM32.329,27.077v-9.1A11.308,11.308,0,0,0,23.083,6.469V5.231A2.918,2.918,0,0,0,20,2.5a2.918,2.918,0,0,0-3.082,2.731V6.469A11.276,11.276,0,0,0,7.673,17.974v9.1L5.023,29.425c-1.294,1.147-.39,3.113,1.438,3.113h27.06c1.829,0,2.753-1.966,1.459-3.113Z" fill="#fffefe"/>
</svg>
